<svg xmlns="http://www.w3.org/2000/svg" version="1.1" xmlns:xlink="http://www.w3.org/1999/xlink" xmlns:svgjs="http://svgjs.dev/svgjs" width="1000" height="318" viewBox="0 0 1000 318"><g transform="matrix(1,0,0,1,-0.6060478942075065,-0.5490175440890539)"><svg viewBox="0 0 396 126" data-background-color="#ffffff" preserveAspectRatio="xMidYMid meet" height="318" width="1000" xmlns="http://www.w3.org/2000/svg" xmlns:xlink="http://www.w3.org/1999/xlink"><g id="tight-bounds" transform="matrix(1,0,0,1,0.23999496610616688,0.21753683550014102)"><svg viewBox="0 0 395.52 125.5649279111816" height="125.5649279111816" width="395.52"><g><svg viewBox="0 0 556.3328363100061 176.6178511475756" height="125.5649279111816" width="395.52"><g><svg viewBox="0 0 556.3328363100061 176.6178511475756" height="176.6178511475756" width="556.3328363100061"><g><svg viewBox="0 0 556.3328363100061 176.6178511475756" height="176.6178511475756" width="556.3328363100061"><g><svg viewBox="0 0 556.3328363100061 116.17240000000001" height="116.17240000000001" width="556.3328363100061"><g><svg><g></g><g></g></svg></g><g><svg><g><svg></svg></g><g></g></svg></g><g id="text-0"><svg viewBox="0 0 556.3328363100061 116.17240000000001" height="116.17240000000001" width="556.3328363100061"><g transform="matrix(1,0,0,1,0,5.787238674033148)"><svg width="395.52" viewBox="4.599999904632568 -35.45000076293945 135.739990234375 35.900001525878906" height="104.59792265193371" data-palette-color="#8b9fd8"><path d="M6.4 0L4.6 0 4.6-35 8.4-35 20.7-2.75 33-35 36.8-35 36.8 0 35 0 35-33.3 34.3-33.3 22-1.05 19.4-1.05 7.1-33.3 6.4-33.3 6.4 0ZM47.8 0L46 0 46-35 47.8-35 47.8 0ZM77.3-2.25L77.45-0.55Q72.45 0.45 68.42 0.45 64.4 0.45 61.92-0.73 59.45-1.9 58.1-4.35 56.75-6.8 56.25-9.85 55.75-12.9 55.75-16.9 55.75-20.9 56.02-23.45 56.3-26 57.07-28.4 57.85-30.8 59.2-32.25L59.2-32.25Q62.2-35.45 68.2-35.45L68.2-35.45Q72.6-35.45 77.45-34.5L77.45-34.5 77.3-32.75Q72.5-33.75 68.97-33.75 65.45-33.75 63.5-32.95 61.55-32.15 60.42-30.88 59.3-29.6 58.67-27.38 58.05-25.15 57.85-22.9 57.65-20.65 57.65-17.35 57.65-14.05 57.85-11.8 58.05-9.55 58.7-7.4 59.35-5.25 60.5-4L60.5-4Q63.05-1.25 68.2-1.25L68.2-1.25Q72.1-1.25 77.3-2.25L77.3-2.25ZM97.99-14.5L86.04-14.5 86.04 0 84.24 0 84.24-35 96.79-35Q102.09-35 104.64-32.6 107.19-30.2 107.19-25L107.19-25Q107.19-16.15 99.94-14.75L99.94-14.75 107.84 0 105.79 0 97.99-14.5ZM105.29-25L105.29-25Q105.29-29.35 103.24-31.33 101.19-33.3 96.79-33.3L96.79-33.3 86.04-33.3 86.04-16.2 96.79-16.2Q105.29-16.2 105.29-25ZM117.57-5.43Q118.79-3.25 121.09-2.25 123.39-1.25 126.97-1.25 130.54-1.25 132.82-2.18 135.09-3.1 136.32-5.23 137.54-7.35 137.99-10.15 138.44-12.95 138.44-17.35L138.44-17.35Q138.44-25.75 136.02-29.75 133.59-33.75 126.94-33.75L126.94-33.75Q119.99-33.75 117.59-29.4L117.59-29.4Q116.39-27.2 115.92-24.38 115.44-21.55 115.44-17.32 115.44-13.1 115.89-10.35 116.34-7.6 117.57-5.43ZM116.19-4.1L116.19-4.1Q114.69-6.5 114.12-9.63 113.54-12.75 113.54-17.35L113.54-17.35Q113.54-26.55 116.44-31 119.34-35.45 126.94-35.45 134.54-35.45 137.44-31.03 140.34-26.6 140.34-17.2 140.34-7.8 137.52-3.68 134.69 0.45 126.84 0.45 118.99 0.45 116.19-4.1Z" opacity="1" transform="matrix(1,0,0,1,0,0)" fill="#8b9fd8" class="undefined-text-0" data-fill-palette-color="primary"></path></svg></g><g><svg xmlns="http://www.w3.org/2000/svg" xmlns:xlink="http://www.w3.org/1999/xlink" version="1.1" x="409.2338" y="0" viewBox="1.4755498170852661 14.355372428894043 98.52471923828125 77.8105239868164" enable-background="new 0 0 100 100" xml:space="preserve" width="147.09903631000608" height="116.17240000000001" class="icon-c-0" data-fill-palette-color="accent" id="c-0"><g fill="#755bb4" data-fill-palette-color="accent"><path fill="#755bb4" d="M56.762 33.314c-2.419 5.108 1.137 10.468 0.539 15.347-0.178 1.446-0.457 2.306-1.293 3.45-5.244-0.538-13.63 3.67-19.679 3.52-5.377-0.135-5.243-4.033-8.067-7.395-0.577-2.417 6.143-11.302 8.604-15.863 6.855-12.705 2.89-12.436 4.705-14.654 1.259-1.539 6.586-3.112 13.309-3.361 3.63-0.135 6.521 4.974 6.521 4.974s8.945-3.596 17.007 0.538c5.242 2.688 5.671 7.622 9.007 13.712 2.967 6.05-0.663 14.318-0.663 14.318s-0.077 2.687 3.473 1.829c1.896-0.458 3.007-1.699 3.53-3.464 0.911-3.074-0.686-4.064-0.851-4.772-0.47-2.017 3.122-0.947 3.728-2.157 0.604-1.21 1-2.392 2.277 1.574 2.986 9.277-0.635 16.203-5.083 18.201-5.171 2.321-9.783 0.998-15.889-1.665-1.374-0.599-4.091-3.078-4.033-1.454 0.144 4.033-0.167 4.435 1.487 6.429 0.317 0.383-0.303 0.998-2.285 0.94-2.452-0.07-5.305-3.105-5.305-3.105C63.633 66.439 66.963 76 66.653 78.417c-0.597 4.638-3.64 7.341-4.504 8.268-1.274 1.366-0.35 1.825-0.604 2.622-0.374 1.166-1.48 2.505-3.104 2.841C56.82 92.633 44.68 83.104 44.8 82.254c0.121-0.849 2.25-2.909 3.569-3.568 0.941-0.471 0.672-1.209 0.593-1.851-0.183-1.504-9.878-3.123-11.29-2.653-1.613 1.612-1.479 6.856-1.479 6.856s0.255 0.808 0.941 1.547c0.523 1.048 0.868 3.823-0.08 4.246-3.743 1.669-19.805 0.282-20.892-0.685-0.605-0.537 0-3.428 1.075-4.302 2.899-2.354 0.403-11.427 0.403-11.427-15.863-15.192-8.53-28.862-8.53-28.862s-1.149 1.575-2.696 1.263c-2.011-0.407-2.931-2.631-3.68-4.75-1.283-0.642-1.455-1.947-1.091-2.974 0.414-1.17 3.188-3.059 4.386-4.514 0.021 1.69-0.984 3.422-0.406 4.621 0.595 1.236-0.364 2.417-1.048 2.674 0.107 1.755 1.198 2.439 2.396 2.481 1.455 0.053 1.391-2.139 3.615-4.642 0.875-2.645 3.425-5.494 9.878-8.586 6.372-3.054 18.021-2.227 18.021-2.227-0.695 1.622-0.826 2.811-2.149 5.05-3.192 5.408-11.022 15.608-10.361 18.376 3.231 3.847 3.668 9.502 9.824 9.657 6.924 0.173 14.906-4.395 20.908-3.779 1.234-2.047 2.553-3.048 2.446-4.681C58.644 41.627 55.818 36.277 56.762 33.314L56.762 33.314zM75.308 39.157c-0.357-0.776-0.581-0.781-0.94-1.022-0.716-0.255-1.54-0.107-2.385 0.273-0.893 0.402-1.118 0.781-1.481 1.274-0.186 0.784-0.04 1.134 0.184 1.565 0.296 0.57 0.836 0.905 1.234 1.108 0.656-0.407 0.896-0.688 1.711-1.013 0.527-0.211 1.259-0.245 1.614-0.324C75.332 40.77 75.624 39.843 75.308 39.157z" data-fill-palette-color="accent"></path></g></svg></g></svg></g></svg></g><g transform="matrix(1,0,0,1,106.25957173521115,140.8654591879779)"><svg viewBox="0 0 343.8136928395838 35.7523919595977" height="35.7523919595977" width="343.8136928395838"><g transform="matrix(1,0,0,1,0,0)"><svg width="343.8136928395838" viewBox="5.320000171661377 -39.11000061035156 380.7799987792969 39.60000228881836" height="35.7523919595977" data-palette-color="#c9c9c9"><path d="M10.11-31.98L10.11 0 5.32 0 5.32-35.77 15.09-35.77Q17.92-35.77 20.35-35.05 22.78-34.33 24.57-32.93 26.37-31.54 27.39-29.48 28.42-27.42 28.42-24.71L28.42-24.71Q28.42-22.78 27.91-21.13 27.39-19.48 26.48-18.14 25.56-16.8 24.34-15.76 23.12-14.72 21.7-14.01 20.29-13.31 18.75-12.94 17.21-12.57 15.67-12.57L15.67-12.57Q15.38-12.57 15.04-12.59 14.7-12.6 14.21-12.67L14.21-12.67 14.55-16.33Q14.99-16.26 15.31-16.25 15.63-16.24 15.94-16.24L15.94-16.24Q17.5-16.24 18.88-16.71 20.26-17.19 21.3-18.16 22.34-19.14 22.94-20.62 23.54-22.09 23.54-24.12L23.54-24.12Q23.54-26.2 22.89-27.69 22.24-29.17 21.03-30.13 19.82-31.08 18.08-31.53 16.33-31.98 14.16-31.98L14.16-31.98 10.11-31.98ZM40.89 0L36.11 0 36.11-35.77 40.89-35.77 40.89-20.56 60.13-20.56 60.13-35.77 64.91-35.77 64.91 0 60.13 0 60.13-16.77 40.89-16.77 40.89 0ZM80.34-31.98L80.34 0 75.56 0 75.56-35.77 85.32-35.77Q88.15-35.77 90.58-35.05 93.01-34.33 94.81-32.93 96.6-31.54 97.63-29.48 98.65-27.42 98.65-24.71L98.65-24.71Q98.65-22.78 98.14-21.13 97.63-19.48 96.71-18.14 95.8-16.8 94.58-15.76 93.35-14.72 91.94-14.01 90.52-13.31 88.98-12.94 87.45-12.57 85.91-12.57L85.91-12.57Q85.62-12.57 85.27-12.59 84.93-12.6 84.44-12.67L84.44-12.67 84.79-16.33Q85.22-16.26 85.54-16.25 85.86-16.24 86.18-16.24L86.18-16.24Q87.74-16.24 89.12-16.71 90.5-17.19 91.54-18.16 92.57-19.14 93.17-20.62 93.77-22.09 93.77-24.12L93.77-24.12Q93.77-26.2 93.12-27.69 92.48-29.17 91.27-30.13 90.06-31.08 88.31-31.53 86.57-31.98 84.39-31.98L84.39-31.98 80.34-31.98ZM122.16 0L117.37 0 117.37-35.77 138.34-35.77 137.61-31.98 122.16-31.98 122.16-20.56 135.93-20.56 135.2-16.77 122.16-16.77 122.16 0ZM144.3 0L144.3-25.88 147.91-25.88 148.64-18.12Q148.96-18.73 149.32-19.37 149.67-20.02 150.02-20.63 150.38-21.24 150.72-21.78 151.06-22.31 151.33-22.71L151.33-22.71Q151.87-23.46 152.54-24.13 153.21-24.8 153.99-25.31 154.77-25.81 155.65-26.09 156.53-26.37 157.53-26.37L157.53-26.37Q158.24-26.37 158.87-26.21 159.51-26.05 159.92-25.68L159.92-25.68 159.44-21.34Q159-21.46 158.57-21.5 158.14-21.53 157.73-21.53L157.73-21.53Q155.99-21.53 154.71-20.97 153.43-20.41 152.42-19.45 151.4-18.48 150.59-17.19 149.77-15.89 148.94-14.4L148.94-14.4 148.94 0 144.3 0ZM179.4-3.86L179.4-3.86Q178.79-3.34 177.93-2.6 177.06-1.86 175.97-1.17 174.89-0.49 173.61 0 172.32 0.49 170.88 0.49L170.88 0.49Q169.59 0.49 168.36 0.04 167.12-0.42 166.17-1.31 165.22-2.2 164.65-3.52 164.07-4.83 164.07-6.54L164.07-6.54Q164.07-7.59 164.33-8.67 164.58-9.74 165.19-10.73 165.81-11.72 166.79-12.59 167.78-13.45 169.24-14.1 170.69-14.75 172.67-15.11 174.64-15.48 177.21-15.48L177.21-15.48 179.4-15.48 179.4-17.72Q179.4-18.85 179.01-19.75 178.62-20.65 177.93-21.3 177.23-21.95 176.27-22.3 175.3-22.66 174.13-22.66L174.13-22.66Q173.25-22.66 172.26-22.46 171.27-22.27 170.29-21.9 169.3-21.53 168.39-21.04 167.49-20.56 166.81-19.97L166.81-19.97 166.37-20.21 165.39-23.78Q166.81-24.56 168.12-25.06 169.44-25.56 170.65-25.85 171.86-26.15 172.96-26.26 174.06-26.37 175.06-26.37L175.06-26.37Q179.62-26.37 181.83-24.48 184.04-22.58 184.04-18.8L184.04-18.8 184.04-6.05Q184.04-5.74 184.09-5.29 184.14-4.83 184.32-4.42 184.51-4 184.86-3.71 185.21-3.42 185.82-3.42L185.82-3.42Q186.17-3.42 186.73-3.53 187.29-3.64 187.85-3.91L187.85-3.91 187.85-1.32Q186.68-0.51 185.5-0.01 184.31 0.49 183.21 0.49L183.21 0.49Q182.21 0.49 181.56 0.09 180.92-0.32 180.49-0.95 180.06-1.59 179.82-2.36 179.57-3.13 179.4-3.86ZM179.4-6.98L179.4-12.65 177.55-12.65Q174.69-12.65 173-12.24 171.3-11.84 170.41-11.17 169.52-10.5 169.24-9.62 168.95-8.74 168.95-7.79L168.95-7.79Q168.95-6.76 169.25-5.96 169.54-5.15 170.07-4.58 170.59-4 171.32-3.71 172.06-3.42 172.91-3.42L172.91-3.42Q173.57-3.42 174.26-3.58 174.96-3.74 175.75-4.14 176.55-4.54 177.44-5.22 178.33-5.91 179.4-6.98L179.4-6.98ZM193.49 0L193.49-25.88 197.1-25.88 197.83-21.39Q198.66-22.17 199.75-23.05 200.84-23.93 202.07-24.66 203.3-25.39 204.63-25.88 205.96-26.37 207.31-26.37L207.31-26.37Q208.41-26.37 209.48-26 210.55-25.63 211.47-24.98 212.38-24.32 213.11-23.38 213.83-22.44 214.24-21.29L214.24-21.29Q215.14-22.09 216.22-22.99 217.29-23.88 218.5-24.63 219.71-25.39 221.08-25.88 222.44-26.37 223.96-26.37L223.96-26.37Q225.74-26.37 227.17-25.67 228.6-24.98 229.6-23.73 230.6-22.49 231.13-20.79 231.67-19.09 231.67-17.09L231.67-17.09 231.67 0 227.03 0 227.03-16.7Q227.03-18.02 226.68-19.08 226.33-20.14 225.67-20.9 225.01-21.66 224.07-22.06 223.13-22.46 221.96-22.46L221.96-22.46Q220.95-22.46 220.06-22.17 219.17-21.88 218.31-21.35 217.44-20.83 216.57-20.09 215.71-19.36 214.8-18.51L214.8-18.51Q214.85-18.16 214.86-17.83 214.88-17.5 214.88-17.09L214.88-17.09 214.88 0 210.24 0 210.24-16.7Q210.24-18.02 209.87-19.08 209.5-20.14 208.83-20.9 208.16-21.66 207.21-22.06 206.26-22.46 205.11-22.46L205.11-22.46Q204.13-22.46 203.25-22.17 202.38-21.88 201.53-21.35 200.69-20.83 199.85-20.1 199.01-19.38 198.13-18.55L198.13-18.55 198.13 0 193.49 0ZM260.87-4.83L260.87-2.2Q259.94-1.54 258.73-1.04 257.52-0.54 256.23-0.2 254.94 0.15 253.63 0.32 252.32 0.49 251.2 0.49L251.2 0.49Q248.71 0.49 246.46-0.34 244.22-1.17 242.53-2.78 240.85-4.39 239.85-6.77 238.85-9.16 238.85-12.26L238.85-12.26Q238.85-15.45 239.91-18.07 240.97-20.68 242.75-22.52 244.54-24.37 246.87-25.37 249.2-26.37 251.76-26.37L251.76-26.37Q253.84-26.37 255.63-25.67 257.43-24.98 258.76-23.58 260.09-22.19 260.84-20.1 261.6-18.02 261.6-15.23L261.6-15.23Q261.6-14.67 261.55-13.89 261.5-13.11 261.36-12.26L261.36-12.26 243.68-12.26Q243.68-10.16 244.43-8.51 245.17-6.86 246.53-5.73 247.88-4.59 249.76-4 251.64-3.42 253.91-3.42L253.91-3.42Q254.47-3.42 255.28-3.47 256.08-3.52 257.01-3.66 257.94-3.81 258.94-4.09 259.94-4.37 260.87-4.83L260.87-4.83ZM243.68-15.14L257.21-15.14Q257.21-16.97 256.69-18.37 256.18-19.78 255.3-20.73 254.42-21.68 253.26-22.17 252.1-22.66 250.79-22.66L250.79-22.66Q249.32-22.66 248.03-22.06 246.73-21.46 245.77-20.43 244.8-19.41 244.24-18.04 243.68-16.67 243.68-15.14L243.68-15.14ZM266.24-25.88L271.36-25.88 276.1-7.76 276.83-3.66 277.32-3.66 278.15-7.71 283.33-25.1 288.62-25.1 293.75-7.76 294.63-3.66 295.12-3.66 295.9-7.71 300.69-25.88 305.37-25.88 297.17 0 292.07 0 287.14-16.02 286.01-20.51 285.52-20.51 284.4-16.02 279.37 0 274.29 0 266.24-25.88ZM321.22 0.49L321.22 0.49Q318.33 0.49 316.09-0.54 313.84-1.56 312.29-3.3 310.74-5.03 309.92-7.34 309.11-9.64 309.11-12.21L309.11-12.21Q309.11-15.14 310.14-17.71 311.18-20.29 313.02-22.22 314.87-24.15 317.41-25.26 319.95-26.37 322.92-26.37L322.92-26.37Q325.83-26.37 328.1-25.33 330.37-24.29 331.92-22.53 333.47-20.78 334.28-18.47 335.08-16.16 335.08-13.62L335.08-13.62Q335.08-10.67 334.03-8.09 332.98-5.52 331.13-3.61 329.27-1.71 326.73-0.61 324.19 0.49 321.22 0.49ZM322.24-3.22L322.24-3.22Q324.02-3.22 325.48-3.94 326.93-4.66 327.97-5.91 329-7.15 329.58-8.85 330.15-10.55 330.15-12.5L330.15-12.5Q330.15-14.43 329.59-16.25 329.03-18.07 327.97-19.49 326.9-20.92 325.37-21.79 323.83-22.66 321.9-22.66L321.9-22.66Q320.12-22.66 318.66-21.94 317.21-21.22 316.17-19.96 315.14-18.7 314.56-16.99 313.99-15.28 313.99-13.33L313.99-13.33Q313.99-11.4 314.55-9.58 315.11-7.76 316.17-6.35 317.24-4.93 318.76-4.08 320.29-3.22 322.24-3.22ZM342.06 0L342.06-25.88 345.68-25.88 346.41-18.12Q346.73-18.73 347.08-19.37 347.43-20.02 347.79-20.63 348.14-21.24 348.48-21.78 348.83-22.31 349.09-22.71L349.09-22.71Q349.63-23.46 350.3-24.13 350.97-24.8 351.75-25.31 352.54-25.81 353.41-26.09 354.29-26.37 355.29-26.37L355.29-26.37Q356-26.37 356.64-26.21 357.27-26.05 357.69-25.68L357.69-25.68 357.2-21.34Q356.76-21.46 356.33-21.5 355.91-21.53 355.49-21.53L355.49-21.53Q353.76-21.53 352.47-20.97 351.19-20.41 350.18-19.45 349.17-18.48 348.35-17.19 347.53-15.89 346.7-14.4L346.7-14.4 346.7 0 342.06 0ZM363.45 0L363.45-39.11 368.09-39.11 368.09 0 363.45 0ZM386.1 0L380.34 0 369.75-13.82 380.19-25.88 385.22-25.88 374.58-14.18 386.1 0Z" opacity="1" transform="matrix(1,0,0,1,0,0)" fill="#c9c9c9" class="undefined-text-1" data-fill-palette-color="secondary" id="text-1"></path></svg></g></svg></g></svg></g></svg></g></svg></g><defs></defs></svg><rect width="395.52" height="125.5649279111816" fill="none" stroke="none" visibility="hidden"></rect></g></svg></g></svg>